<svg xmlns="http://www.w3.org/2000/svg" width="20" height="20" fill="none" viewBox="0 0 20 20"><g clip-path="url(#a)"><path stroke="#051513" stroke-linecap="round" stroke-linejoin="round" stroke-width="1.6" d="M4.167 12.5c-.777 0-1.165 0-1.471-.127a1.67 1.67 0 0 1-.902-.902c-.127-.306-.127-.694-.127-1.471V4.333c0-.933 0-1.4.182-1.756.16-.314.414-.569.728-.729.357-.181.823-.181 1.757-.181H10c.777 0 1.165 0 1.472.127.408.169.732.493.902.902.126.306.126.694.126 1.47m-2.333 14.167h5.5c.933 0 1.4 0 1.757-.181.313-.16.568-.415.728-.729.182-.356.182-.823.182-1.756v-5.5c0-.934 0-1.4-.182-1.757a1.67 1.67 0 0 0-.728-.728C17.067 7.5 16.6 7.5 15.667 7.5h-5.5c-.933 0-1.4 0-1.757.182-.313.16-.568.414-.728.728-.182.357-.182.823-.182 1.757v5.5c0 .933 0 1.4.182 1.756.16.314.415.569.728.729.357.181.824.181 1.757.181"/></g><defs><clipPath id="a"><path fill="#fff" d="M0 0h20v20H0z"/></clipPath></defs></svg>