<svg xmlns="http://www.w3.org/2000/svg" width="20" height="20" fill="none" viewBox="0 0 20 20"><g stroke="#051513" stroke-linecap="round" stroke-linejoin="round" stroke-width="1.6" clip-path="url(#a)"><path d="M1.667 10A8.333 8.333 0 0 0 10 18.333a2.5 2.5 0 0 0 2.5-2.5v-.416c0-.387 0-.58.022-.743a2.5 2.5 0 0 1 2.152-2.153c.162-.021.356-.021.743-.021h.417a2.5 2.5 0 0 0 2.5-2.5 8.333 8.333 0 0 0-16.667 0"/><path d="M5.834 10.833a.833.833 0 1 0 0-1.666.833.833 0 0 0 0 1.666M13.334 7.5a.833.833 0 1 0 0-1.667.833.833 0 0 0 0 1.667M8.334 6.667a.833.833 0 1 0 0-1.667.833.833 0 0 0 0 1.667"/></g><defs><clipPath id="a"><path fill="#fff" d="M0 0h20v20H0z"/></clipPath></defs></svg>