<svg xmlns="http://www.w3.org/2000/svg" width="20" height="20" fill="none" viewBox="0 0 20 20"><path stroke="#051513" stroke-linecap="round" stroke-linejoin="round" stroke-width="1.6" d="M2.017 10.594c-.114-.18-.17-.27-.202-.408a1 1 0 0 1 0-.372c.032-.139.088-.229.202-.408.938-1.485 3.73-5.24 7.983-5.24 4.255 0 7.046 3.755 7.984 5.24.113.18.17.27.202.408a1 1 0 0 1 0 .372c-.032.139-.089.229-.202.408-.938 1.485-3.73 5.24-7.984 5.24s-7.045-3.755-7.983-5.24"/><path stroke="#051513" stroke-linecap="round" stroke-linejoin="round" stroke-width="1.6" d="M10 12.5a2.5 2.5 0 1 0 0-5 2.5 2.5 0 0 0 0 5"/></svg>