<svg xmlns="http://www.w3.org/2000/svg" width="20" height="20" fill="none" viewBox="0 0 20 20"><path stroke="#000" stroke-linecap="round" stroke-linejoin="round" stroke-width="1.6" d="m6.98 13.014-4.713 4.714M9.745 5.535l-1.3 1.3c-.106.107-.16.16-.22.202a1 1 0 0 1-.172.092c-.069.027-.143.042-.29.071l-3.053.611c-.794.159-1.19.238-1.376.447a.83.83 0 0 0-.203.668c.039.277.325.563.897 1.135l5.905 5.905c.572.572.858.858 1.136.897a.83.83 0 0 0 .667-.202c.21-.186.289-.583.447-1.376l.611-3.054c.03-.147.044-.22.071-.29a1 1 0 0 1 .092-.172c.042-.06.096-.113.202-.22l1.3-1.3c.068-.068.102-.102.14-.132a1 1 0 0 1 .104-.07 2 2 0 0 1 .174-.08l2.079-.892c.606-.26.91-.39 1.047-.6a.83.83 0 0 0 .12-.622c-.05-.246-.283-.48-.75-.946l-4.286-4.286c-.466-.466-.7-.7-.946-.75a.83.83 0 0 0-.622.12c-.21.138-.34.441-.6 1.048l-.89 2.078c-.039.088-.058.133-.081.174a1 1 0 0 1-.071.105c-.03.037-.064.071-.132.139"/></svg>