<svg xmlns="http://www.w3.org/2000/svg" width="20" height="20" fill="none" viewBox="0 0 20 20"><path stroke="#051513" stroke-linecap="round" stroke-linejoin="round" stroke-width="1.6" d="M3.334 6.664a2 2 0 0 1-.325-.03 1.67 1.67 0 0 1-1.31-1.309c-.032-.16-.032-.354-.032-.742 0-.387 0-.58.032-.741a1.67 1.67 0 0 1 1.31-1.31c.16-.032.354-.032.741-.032h12.5c.387 0 .581 0 .742.032a1.67 1.67 0 0 1 1.31 1.31c.032.16.032.354.032.741 0 .388 0 .581-.032.742a1.67 1.67 0 0 1-1.31 1.31 2 2 0 0 1-.325.029m-8.333 4.17h3.333M3.334 6.666h13.333V13.5c0 1.4 0 2.1-.273 2.635a2.5 2.5 0 0 1-1.092 1.092c-.535.273-1.235.273-2.635.273H7.334c-1.4 0-2.1 0-2.635-.273a2.5 2.5 0 0 1-1.093-1.092c-.272-.535-.272-1.235-.272-2.635z"/></svg>