<svg xmlns="http://www.w3.org/2000/svg" width="214" height="32" fill="none" viewBox="0 0 214 32"><g clip-path="url(#a)"><path fill="#fff" d="M7 5h18v23H7z"/><path fill="#014745" d="M11.735 11.757c0-.442 0-1.363 2.014-1.363h4.496c2.012 0 2.012.934 2.012 1.494l.003 9.316-3.636-2.056a1.23 1.23 0 0 0-1.206-.002l-3.683 2.064z"/><path fill="#014745" fill-rule="evenodd" d="M22.919 31.59H9.078C3.892 31.59.41 27.945.41 22.522V9.479C.41 4.055 3.892.41 9.078.41H22.92c5.186 0 8.67 3.645 8.67 9.069v13.043c0 5.423-3.486 9.068-8.671 9.068M9.275 22.166a1.904 1.904 0 0 0 2.832 1.659l3.91-2.193 3.873 2.19a1.907 1.907 0 0 0 2.593-.734 1.9 1.9 0 0 0 .24-.926l-.004-10.274c0-2.477-1.672-3.955-4.473-3.955H13.75c-2.76 0-4.475 1.465-4.475 3.824z" clip-rule="evenodd"/></g><path fill="#fff" d="M46.836 16.76h-3.652l-.02-2.012h3.066q.81 0 1.329-.205.517-.215.771-.615.264-.411.264-.996 0-.664-.254-1.075-.244-.41-.772-.595-.517-.186-1.337-.186h-2.032V23h-2.93V8.781h4.962q1.24 0 2.216.235.987.234 1.67.713.684.478 1.045 1.21.361.723.361 1.72a3.36 3.36 0 0 1-.4 1.62q-.39.743-1.24 1.211-.84.469-2.198.518zM46.709 23h-4.326l1.142-2.285h3.184q.771 0 1.26-.244.488-.254.722-.684.235-.43.235-.986 0-.625-.215-1.084a1.45 1.45 0 0 0-.664-.703q-.46-.255-1.211-.254h-2.822l.02-2.012h3.515l.674.791q1.298-.02 2.09.459.8.47 1.162 1.22.37.753.37 1.612 0 1.368-.595 2.305-.596.927-1.748 1.396-1.143.47-2.793.469m6.509-5.176v-.205q0-1.162.332-2.139a4.95 4.95 0 0 1 .967-1.709 4.3 4.3 0 0 1 1.562-1.123q.928-.41 2.13-.41 1.2 0 2.138.41.937.4 1.572 1.124.645.721.977 1.708.332.976.332 2.14v.204q0 1.152-.332 2.139a5 5 0 0 1-.977 1.709 4.3 4.3 0 0 1-1.562 1.123q-.928.4-2.13.4-1.2 0-2.138-.4a4.4 4.4 0 0 1-1.572-1.123 5.1 5.1 0 0 1-.967-1.71 6.7 6.7 0 0 1-.332-2.138m2.813-.205v.205q0 .664.117 1.24.117.577.37 1.016.264.43.684.674t1.026.244q.585 0 1.006-.244.42-.245.673-.674a3.4 3.4 0 0 0 .372-1.015q.127-.577.127-1.24v-.206q0-.645-.127-1.21a3.2 3.2 0 0 0-.381-1.016 1.9 1.9 0 0 0-.674-.703q-.42-.255-1.016-.255t-1.015.255q-.41.253-.674.703a3.4 3.4 0 0 0-.371 1.015 6 6 0 0 0-.117 1.211m8.276.205v-.205q0-1.162.332-2.139a4.95 4.95 0 0 1 .967-1.709 4.3 4.3 0 0 1 1.562-1.123q.928-.41 2.13-.41 1.2 0 2.138.41.938.4 1.572 1.124.645.721.977 1.708.332.976.332 2.14v.204q0 1.152-.332 2.139a5 5 0 0 1-.977 1.709 4.3 4.3 0 0 1-1.562 1.123q-.928.4-2.13.4-1.2 0-2.138-.4a4.4 4.4 0 0 1-1.572-1.123 5.1 5.1 0 0 1-.967-1.71 6.7 6.7 0 0 1-.332-2.138m2.813-.205v.205q0 .664.117 1.24.118.577.37 1.016.265.43.684.674t1.026.244q.585 0 1.006-.244.42-.245.674-.674a3.4 3.4 0 0 0 .37-1.015q.127-.577.127-1.24v-.206q0-.645-.126-1.21a3.2 3.2 0 0 0-.381-1.016q-.255-.45-.674-.703-.42-.255-1.016-.255-.595 0-1.015.255-.41.253-.674.703a3.4 3.4 0 0 0-.371 1.015 6 6 0 0 0-.117 1.211M78.658 7.99V23h-2.813V7.99zm6.66 4.444-4.59 5.234-2.46 2.49-1.026-2.031 1.953-2.48 2.744-3.213zM82.398 23l-3.125-4.883 1.943-1.699L85.64 23zm6.743-8.379V23H86.32V12.434h2.647zm-.39 2.725h-.782q0-1.104.264-2.031a5 5 0 0 1 .791-1.622q.528-.693 1.299-1.074.771-.38 1.787-.38.703-.001 1.29.214.585.206 1.005.654.43.44.664 1.153.234.703.234 1.69V23h-2.812v-6.738q0-.723-.195-1.114a1.1 1.1 0 0 0-.557-.546 2.1 2.1 0 0 0-.85-.157q-.546 0-.957.225-.4.225-.664.625-.263.39-.39.918-.127.527-.127 1.133m6.289-.323-1.006.127q0-1.035.254-1.923a4.9 4.9 0 0 1 .771-1.563q.518-.674 1.28-1.045.761-.38 1.758-.38.761 0 1.386.224.626.215 1.065.693.449.47.683 1.23.244.763.244 1.866V23h-2.822v-6.748q0-.733-.195-1.113a1.02 1.02 0 0 0-.547-.537 2.1 2.1 0 0 0-.84-.157q-.508 0-.889.205-.38.196-.634.547-.255.352-.381.82a3.8 3.8 0 0 0-.127 1.006m14.116 3.594V15.91q0-.507-.166-.869a1.23 1.23 0 0 0-.517-.576q-.342-.205-.889-.205-.47 0-.811.166a1.18 1.18 0 0 0-.527.459 1.26 1.26 0 0 0-.185.693h-2.813q0-.674.313-1.28.312-.605.908-1.064a4.5 4.5 0 0 1 1.416-.732 6.1 6.1 0 0 1 1.855-.264q1.231 0 2.188.41a3.35 3.35 0 0 1 1.504 1.23q.556.821.556 2.052v4.521q0 .87.108 1.426.106.547.312.957V23h-2.842a4.1 4.1 0 0 1-.312-1.074 9 9 0 0 1-.098-1.309m.371-4.053.02 1.592h-1.572q-.557 0-.967.127a1.8 1.8 0 0 0-.674.361 1.4 1.4 0 0 0-.391.528 1.8 1.8 0 0 0-.117.664q0 .36.166.654.166.283.479.45.312.156.732.156.635 0 1.104-.254.468-.255.722-.625.264-.372.274-.703l.742 1.191a4.8 4.8 0 0 1-.43.83q-.263.43-.674.81a3.5 3.5 0 0 1-.986.616q-.576.234-1.367.234a4.1 4.1 0 0 1-1.826-.4 3.3 3.3 0 0 1-1.289-1.123 2.95 2.95 0 0 1-.469-1.64q0-.831.312-1.475.314-.645.918-1.084.616-.45 1.534-.674.918-.234 2.128-.235zm7.242-1.826V23h-2.813V12.434h2.647zm3.183-2.373-.048 2.608a7 7 0 0 0-.499-.05 5 5 0 0 0-.517-.028 3.1 3.1 0 0 0-1.035.156 1.84 1.84 0 0 0-.723.44 1.9 1.9 0 0 0-.43.712q-.136.42-.156.957l-.566-.176q0-1.025.205-1.884.205-.87.596-1.514.4-.645.976-.996a2.5 2.5 0 0 1 1.318-.352q.235 0 .479.04.244.029.4.087m3.941-4.375V23h-2.813V7.99zm6.66 4.444-4.59 5.234-2.461 2.49-1.025-2.031 1.953-2.48 2.744-3.213zM127.633 23l-3.125-4.883 1.944-1.699L130.875 23zm10.225-14.219h2.481l3.652 10.44 3.652-10.44h2.481L144.987 23h-1.992zm-1.338 0h2.471l.449 10.176V23h-2.92zm12.471 0h2.48V23h-2.929v-4.043zm10.376 11.836V15.91q0-.507-.166-.869a1.24 1.24 0 0 0-.517-.576q-.342-.205-.889-.205-.47 0-.811.166a1.18 1.18 0 0 0-.527.459 1.27 1.27 0 0 0-.186.693h-2.812q0-.674.312-1.28.314-.605.909-1.064a4.5 4.5 0 0 1 1.416-.732 6.1 6.1 0 0 1 1.855-.264q1.23 0 2.188.41a3.35 3.35 0 0 1 1.504 1.23q.556.821.556 2.052v4.521q0 .87.108 1.426.107.547.312.957V23h-2.842a4 4 0 0 1-.312-1.074 9 9 0 0 1-.098-1.309m.371-4.053.02 1.592h-1.572a3.3 3.3 0 0 0-.967.127 1.8 1.8 0 0 0-.674.361 1.4 1.4 0 0 0-.391.528 1.8 1.8 0 0 0-.117.664q0 .36.166.654.166.283.479.45.312.156.732.156.635 0 1.104-.254.468-.255.722-.625.264-.372.274-.703l.742 1.191a5 5 0 0 1-.43.83q-.263.43-.674.81a3.5 3.5 0 0 1-.986.616q-.576.234-1.367.234a4.1 4.1 0 0 1-1.826-.4 3.3 3.3 0 0 1-1.289-1.123 2.95 2.95 0 0 1-.469-1.64q0-.831.312-1.475.313-.645.918-1.084.615-.45 1.534-.674.917-.234 2.128-.235zm7.183-1.874V23h-2.812V12.434h2.636zm-.41 2.656h-.762q0-1.173.303-2.11.303-.947.85-1.611.546-.675 1.298-1.025a3.9 3.9 0 0 1 1.7-.362q.742 0 1.357.215a2.6 2.6 0 0 1 1.055.684q.449.468.683 1.24.244.771.244 1.885V23h-2.832v-6.748q0-.703-.195-1.094a1.1 1.1 0 0 0-.576-.547q-.37-.166-.918-.166a2.06 2.06 0 0 0-.986.225q-.411.225-.684.625a3 3 0 0 0-.4.918q-.137.527-.137 1.133m14.37 3.271V15.91q0-.507-.166-.869a1.23 1.23 0 0 0-.517-.576q-.342-.205-.889-.205-.47 0-.811.166a1.18 1.18 0 0 0-.527.459 1.26 1.26 0 0 0-.185.693h-2.813q0-.674.313-1.28.312-.605.908-1.064a4.5 4.5 0 0 1 1.416-.732 6.1 6.1 0 0 1 1.855-.264q1.231 0 2.188.41a3.35 3.35 0 0 1 1.504 1.23q.556.821.556 2.052v4.521q0 .87.108 1.426.106.547.312.957V23h-2.842a4.1 4.1 0 0 1-.312-1.074 9 9 0 0 1-.098-1.309m.371-4.053.02 1.592H179.7q-.557 0-.967.127a1.8 1.8 0 0 0-.674.361 1.4 1.4 0 0 0-.391.528 1.8 1.8 0 0 0-.117.664q0 .36.166.654.166.283.479.45.312.156.732.156.634 0 1.104-.254.468-.255.722-.625.264-.372.274-.703l.742 1.191a4.8 4.8 0 0 1-.43.83q-.263.43-.674.81a3.5 3.5 0 0 1-.986.616q-.576.234-1.367.234a4.1 4.1 0 0 1-1.826-.4 3.3 3.3 0 0 1-1.289-1.123 2.95 2.95 0 0 1-.469-1.64q0-.831.312-1.475.313-.645.918-1.084.616-.45 1.534-.674.918-.234 2.128-.235zm11.119-4.13h2.549v10.214q0 1.446-.645 2.452a3.98 3.98 0 0 1-1.777 1.533q-1.142.527-2.657.527-.663 0-1.406-.176a5.6 5.6 0 0 1-1.406-.547 3.7 3.7 0 0 1-1.113-.937l1.24-1.66q.488.566 1.133.879a3.14 3.14 0 0 0 1.425.322q.762 0 1.29-.283.526-.274.81-.81.283-.528.283-1.28v-7.793zm-7.11 5.41v-.205q0-1.212.293-2.198.303-.995.85-1.709.556-.713 1.348-1.103.79-.39 1.787-.39 1.055 0 1.767.39.713.39 1.172 1.113.46.713.713 1.69.264.966.41 2.119V18q-.146 1.105-.439 2.05a6.3 6.3 0 0 1-.772 1.66 3.4 3.4 0 0 1-1.191 1.095q-.704.39-1.68.39t-1.767-.4a3.95 3.95 0 0 1-1.338-1.123 5.4 5.4 0 0 1-.86-1.7 7.4 7.4 0 0 1-.293-2.128m2.813-.205v.205q0 .654.127 1.22.127.567.39 1.006.274.43.674.674.41.234.967.235.771 0 1.26-.323.487-.332.732-.908.244-.576.283-1.328v-1.28a4.3 4.3 0 0 0-.166-1.103 2.6 2.6 0 0 0-.41-.85 1.8 1.8 0 0 0-.683-.546q-.42-.196-.996-.196-.558 0-.967.254a2.1 2.1 0 0 0-.674.674 3.4 3.4 0 0 0-.4 1.016q-.138.576-.137 1.25m13.696 5.556q-1.23 0-2.207-.39a4.85 4.85 0 0 1-1.66-1.104 4.9 4.9 0 0 1-1.035-1.63 5.5 5.5 0 0 1-.361-1.993v-.39q0-1.202.341-2.198.342-.996.977-1.728.645-.733 1.562-1.123.918-.4 2.071-.4 1.124 0 1.992.37a3.9 3.9 0 0 1 1.455 1.055q.596.684.899 1.64.302.948.302 2.11v1.172h-8.398V16.71h5.635v-.215q0-.585-.215-1.045a1.66 1.66 0 0 0-.625-.742q-.42-.274-1.074-.274-.558 0-.958.245-.4.243-.654.683a3.7 3.7 0 0 0-.371 1.035q-.117.586-.117 1.29v.39q0 .635.176 1.172.185.537.517.928.342.39.821.605a2.7 2.7 0 0 0 1.103.215q.762 0 1.416-.293a3.07 3.07 0 0 0 1.143-.908l1.367 1.484q-.332.48-.908.918a4.9 4.9 0 0 1-1.368.723q-.8.273-1.826.273m8.55-8.457V23h-2.812V12.434h2.646zm3.184-2.373-.049 2.608a7 7 0 0 0-.498-.05 5 5 0 0 0-.518-.028 3.1 3.1 0 0 0-1.035.156 1.84 1.84 0 0 0-.722.44 1.9 1.9 0 0 0-.43.712q-.137.42-.156.957l-.567-.176q0-1.025.205-1.884.206-.87.596-1.514.4-.645.977-.996a2.5 2.5 0 0 1 1.318-.352q.234 0 .479.04.243.029.4.087"/><defs><clipPath id="a"><path fill="#fff" d="M0 0h32v32H0z"/></clipPath></defs></svg>